<?xml version="1.0" encoding="utf-8"?>
<!-- Generator: Adobe Illustrator 16.0.0, SVG Export Plug-In . SVG Version: 6.00 Build 0)  -->
<!DOCTYPE svg PUBLIC "-//W3C//DTD SVG 1.1//EN" "http://www.w3.org/Graphics/SVG/1.1/DTD/svg11.dtd">
<svg version="1.1" id="Layer_1" xmlns="http://www.w3.org/2000/svg" xmlns:xlink="http://www.w3.org/1999/xlink" x="0px" y="0px"
	 width="600px" height="300px" viewBox="0 0 600 300" enable-background="new 0 0 600 300" xml:space="preserve">
<g>
	<g>
		<path fill="#21B799" d="M505.84,247.533c0,1.922-1.558,3.479-3.479,3.479H264.49c-1.922,0-3.479-1.557-3.479-3.479v-48.279
			c0-1.924,1.558-3.479,3.479-3.479h237.874c1.921,0,3.479,1.557,3.479,3.479L505.84,247.533L505.84,247.533z"/>
		<g>
			<g>
				<path fill="#FFFFFF" d="M287.433,224.668v9.793h-3.16v-23.469h6.633c1.483,0,2.769,0.15,3.85,0.451
					c1.081,0.299,1.974,0.732,2.678,1.301s1.226,1.254,1.562,2.057c0.337,0.805,0.508,1.701,0.508,2.693
					c0,0.83-0.131,1.605-0.393,2.326c-0.266,0.721-0.646,1.367-1.142,1.938s-1.104,1.062-1.817,1.469
					c-0.713,0.402-1.524,0.709-2.433,0.916c0.394,0.229,0.742,0.561,1.049,1l6.847,9.316h-2.816c-0.579,0-1.004-0.229-1.276-0.676
					l-6.093-8.385c-0.188-0.266-0.388-0.451-0.604-0.562c-0.219-0.113-0.547-0.174-0.982-0.174L287.433,224.668L287.433,224.668z
					 M287.433,222.357h3.324c0.93,0,1.744-0.111,2.448-0.336c0.703-0.225,1.294-0.539,1.771-0.949
					c0.475-0.41,0.832-0.896,1.071-1.465c0.24-0.57,0.359-1.195,0.359-1.885c0-1.396-0.461-2.451-1.385-3.16
					c-0.922-0.709-2.295-1.064-4.119-1.064h-3.471L287.433,222.357L287.433,222.357z"/>
				<path fill="#FFFFFF" d="M311.146,217.609c0.992,0,1.91,0.166,2.75,0.498c0.845,0.334,1.565,0.812,2.183,1.439
					c0.608,0.629,1.088,1.4,1.433,2.322c0.344,0.926,0.519,1.979,0.519,3.152c0,0.459-0.052,0.764-0.146,0.918
					c-0.099,0.148-0.284,0.229-0.558,0.229h-11.039c0.021,1.049,0.164,1.959,0.426,2.732c0.264,0.775,0.623,1.424,1.082,1.939
					c0.457,0.52,1.004,0.904,1.639,1.164c0.633,0.256,1.344,0.385,2.129,0.385c0.73,0,1.361-0.086,1.896-0.254
					c0.528-0.17,0.981-0.355,1.367-0.549c0.381-0.195,0.698-0.379,0.957-0.551c0.258-0.17,0.479-0.254,0.661-0.254
					c0.24,0,0.429,0.094,0.56,0.277l0.815,1.061c-0.356,0.439-0.788,0.814-1.293,1.139c-0.502,0.322-1.041,0.592-1.61,0.799
					c-0.572,0.203-1.166,0.359-1.776,0.467c-0.608,0.104-1.218,0.15-1.815,0.15c-1.146,0-2.2-0.189-3.168-0.58
					c-0.97-0.389-1.804-0.951-2.509-1.699s-1.252-1.678-1.646-2.775c-0.396-1.104-0.589-2.367-0.589-3.801
					c0-1.156,0.177-2.236,0.529-3.242c0.354-1.006,0.865-1.875,1.531-2.609c0.666-0.736,1.479-1.314,2.438-1.736
					C308.863,217.818,309.945,217.609,311.146,217.609z M311.21,219.754c-1.407,0-2.517,0.406-3.323,1.221
					c-0.809,0.814-1.312,1.941-1.506,3.385h9.021c0-0.68-0.096-1.297-0.278-1.854c-0.185-0.562-0.459-1.053-0.817-1.459
					c-0.357-0.408-0.801-0.729-1.314-0.949C312.469,219.865,311.876,219.754,311.21,219.754z"/>
				<path fill="#FFFFFF" d="M333.926,234.461h-1.293c-0.285,0-0.515-0.043-0.688-0.131c-0.178-0.088-0.289-0.273-0.348-0.557
					l-0.324-1.539c-0.438,0.393-0.861,0.744-1.275,1.057c-0.416,0.312-0.854,0.572-1.312,0.785
					c-0.457,0.213-0.943,0.373-1.467,0.482c-0.519,0.107-1.095,0.164-1.728,0.164c-0.646,0-1.248-0.092-1.812-0.271
					c-0.562-0.182-1.051-0.451-1.465-0.812c-0.416-0.359-0.746-0.816-0.991-1.373c-0.244-0.553-0.367-1.207-0.367-1.963
					c0-0.656,0.183-1.291,0.539-1.896c0.36-0.604,0.942-1.145,1.743-1.619c0.804-0.471,1.854-0.854,3.153-1.154
					c1.3-0.305,2.888-0.449,4.768-0.449v-1.307c0-1.299-0.274-2.271-0.828-2.938c-0.552-0.664-1.364-0.996-2.444-0.996
					c-0.711,0-1.312,0.09-1.795,0.27c-0.483,0.182-0.906,0.383-1.263,0.605c-0.354,0.227-0.662,0.426-0.918,0.604
					c-0.257,0.184-0.511,0.271-0.763,0.271c-0.194,0-0.366-0.053-0.517-0.156c-0.146-0.104-0.268-0.23-0.354-0.385l-0.521-0.936
					c0.916-0.889,1.9-1.545,2.963-1.979c1.06-0.439,2.229-0.656,3.521-0.656c0.93,0,1.752,0.152,2.476,0.459
					c0.721,0.307,1.323,0.73,1.815,1.277c0.489,0.547,0.859,1.205,1.112,1.979c0.252,0.773,0.377,1.627,0.377,2.557v10.611h0.005
					V234.461L333.926,234.461z M326.359,232.676c0.514,0,0.979-0.051,1.404-0.154c0.43-0.104,0.828-0.25,1.203-0.439
					c0.377-0.188,0.737-0.424,1.082-0.691c0.344-0.271,0.684-0.582,1.008-0.938v-3.424c-1.344,0-2.48,0.086-3.424,0.256
					c-0.938,0.17-1.703,0.396-2.293,0.666c-0.591,0.271-1.02,0.605-1.285,0.979c-0.269,0.371-0.396,0.791-0.396,1.252
					c0,0.438,0.066,0.812,0.213,1.137c0.143,0.316,0.332,0.58,0.572,0.783c0.236,0.203,0.521,0.352,0.852,0.438
					C325.622,232.629,325.977,232.676,326.359,232.676z"/>
				<path fill="#FFFFFF" d="M350.023,234.461c-0.412,0-0.679-0.201-0.782-0.604l-0.267-2.018c-0.709,0.859-1.521,1.555-2.434,2.068
					c-0.911,0.521-1.957,0.777-3.137,0.777c-0.949,0-1.812-0.184-2.586-0.551c-0.774-0.363-1.438-0.9-1.981-1.611
					c-0.548-0.709-0.968-1.596-1.263-2.652c-0.295-1.055-0.44-2.271-0.44-3.648c0-1.227,0.164-2.359,0.491-3.414
					c0.326-1.055,0.8-1.969,1.416-2.742c0.617-0.771,1.367-1.385,2.253-1.826c0.885-0.439,1.89-0.662,3.015-0.662
					c1.019,0,1.883,0.174,2.604,0.518c0.721,0.346,1.365,0.826,1.933,1.449v-9.203h2.916v24.123h-1.735v-0.004H350.023
					L350.023,234.461z M344.372,232.332c0.951,0,1.783-0.219,2.498-0.654c0.715-0.438,1.373-1.055,1.974-1.852v-8.025
					c-0.535-0.721-1.121-1.225-1.761-1.514s-1.347-0.436-2.12-0.436c-1.552,0-2.74,0.553-3.57,1.652
					c-0.83,1.102-1.244,2.678-1.244,4.719c0,1.082,0.096,2.006,0.277,2.77c0.188,0.771,0.459,1.404,0.819,1.9
					c0.356,0.494,0.802,0.857,1.326,1.09C343.095,232.217,343.697,232.332,344.372,232.332z"/>
				<path fill="#FFFFFF" d="M361.52,239.357c-0.098,0.219-0.221,0.395-0.363,0.521c-0.147,0.131-0.375,0.193-0.684,0.193h-2.162
					l3.029-6.584l-6.847-15.623h2.521c0.252,0,0.449,0.062,0.59,0.189c0.146,0.127,0.246,0.268,0.312,0.418l4.438,10.447
					c0.102,0.238,0.188,0.48,0.254,0.725c0.07,0.236,0.137,0.48,0.188,0.732c0.075-0.252,0.153-0.496,0.229-0.732
					c0.072-0.24,0.16-0.486,0.262-0.738l4.308-10.434c0.065-0.176,0.179-0.316,0.337-0.438c0.157-0.115,0.329-0.172,0.519-0.172
					h2.323L361.52,239.357z"/>
				<path fill="#FFFFFF" d="M383.695,225.682v8.779h-3.162v-23.469h6.929c1.483,0,2.776,0.172,3.872,0.516
					c1.1,0.348,2.009,0.834,2.729,1.467c0.723,0.637,1.262,1.396,1.611,2.293c0.354,0.896,0.532,1.896,0.532,2.996
					c0,1.096-0.19,2.096-0.573,2.998c-0.382,0.906-0.941,1.688-1.679,2.344c-0.735,0.652-1.651,1.166-2.741,1.529
					c-1.095,0.365-2.345,0.549-3.753,0.549h-3.766L383.695,225.682L383.695,225.682z M383.695,223.16h3.766
					c0.906,0,1.707-0.119,2.4-0.359c0.689-0.238,1.271-0.576,1.74-1.008c0.473-0.432,0.824-0.947,1.063-1.547
					c0.239-0.602,0.356-1.262,0.356-1.982c0-1.492-0.461-2.664-1.384-3.504c-0.924-0.84-2.314-1.262-4.187-1.262h-3.768v9.662
					H383.695L383.695,223.16z"/>
				<path fill="#FFFFFF" d="M411.124,234.461h-1.293c-0.282,0-0.515-0.043-0.688-0.131c-0.176-0.088-0.289-0.273-0.344-0.557
					l-0.328-1.539c-0.438,0.393-0.862,0.744-1.273,1.057c-0.414,0.312-0.854,0.572-1.312,0.785s-0.947,0.373-1.466,0.482
					c-0.521,0.107-1.096,0.164-1.729,0.164c-0.646,0-1.248-0.092-1.811-0.271c-0.562-0.182-1.052-0.451-1.468-0.812
					c-0.414-0.359-0.743-0.816-0.989-1.373c-0.246-0.553-0.369-1.207-0.369-1.963c0-0.656,0.182-1.291,0.541-1.896
					c0.358-0.604,0.94-1.145,1.744-1.619c0.803-0.471,1.854-0.854,3.151-1.154c1.299-0.305,2.89-0.449,4.767-0.449v-1.307
					c0-1.299-0.273-2.271-0.826-2.938c-0.553-0.664-1.368-0.996-2.447-0.996c-0.709,0-1.309,0.09-1.793,0.27
					c-0.484,0.182-0.904,0.383-1.264,0.605c-0.354,0.227-0.66,0.426-0.916,0.604c-0.258,0.184-0.513,0.271-0.763,0.271
					c-0.196,0-0.368-0.053-0.518-0.156c-0.146-0.102-0.268-0.23-0.354-0.385l-0.522-0.936c0.918-0.889,1.903-1.545,2.968-1.979
					c1.06-0.439,2.229-0.656,3.521-0.656c0.928,0,1.752,0.152,2.473,0.459c0.725,0.307,1.326,0.73,1.816,1.277
					c0.491,0.547,0.862,1.205,1.114,1.979c0.25,0.773,0.375,1.627,0.375,2.557v10.611h0.006v-0.004H411.124L411.124,234.461z
					 M403.561,232.676c0.516,0,0.981-0.051,1.408-0.154c0.426-0.104,0.826-0.25,1.203-0.439c0.377-0.188,0.735-0.424,1.079-0.691
					c0.345-0.271,0.681-0.582,1.009-0.938v-3.424c-1.345,0-2.483,0.086-3.422,0.256s-1.703,0.396-2.293,0.666
					c-0.591,0.271-1.021,0.605-1.287,0.979c-0.269,0.371-0.399,0.791-0.399,1.252c0,0.438,0.069,0.812,0.216,1.137
					c0.144,0.316,0.332,0.58,0.57,0.783s0.523,0.352,0.854,0.438C402.822,232.629,403.178,232.676,403.561,232.676z"/>
				<path fill="#FFFFFF" d="M415.547,234.461v-16.59h1.672c0.315,0,0.535,0.061,0.653,0.18c0.121,0.121,0.203,0.328,0.246,0.623
					l0.194,2.588c0.565-1.156,1.271-2.062,2.104-2.711c0.836-0.646,1.812-0.975,2.938-0.975c0.459,0,0.872,0.053,1.243,0.156
					c0.371,0.102,0.716,0.248,1.033,0.434l-0.377,2.178c-0.076,0.273-0.246,0.41-0.509,0.41c-0.151,0-0.391-0.053-0.704-0.156
					c-0.315-0.104-0.759-0.152-1.326-0.152c-1.017,0-1.862,0.295-2.547,0.885c-0.683,0.594-1.252,1.447-1.711,2.572v10.562h-2.915
					v-0.002h0.005L415.547,234.461L415.547,234.461z"/>
				<path fill="#FFFFFF" d="M433.775,234.723c-1.312,0-2.318-0.365-3.021-1.102c-0.705-0.729-1.058-1.781-1.058-3.156v-10.154
					h-1.998c-0.179,0-0.322-0.051-0.442-0.154c-0.119-0.104-0.181-0.266-0.181-0.484v-1.162l2.72-0.344l0.672-5.127
					c0.021-0.162,0.092-0.297,0.213-0.398c0.119-0.105,0.272-0.152,0.459-0.152h1.477v5.717h4.75v2.107h-4.75v9.961
					c0,0.693,0.17,1.219,0.508,1.557s0.771,0.512,1.312,0.512c0.31,0,0.568-0.041,0.795-0.123c0.226-0.082,0.418-0.176,0.58-0.271
					c0.163-0.1,0.308-0.188,0.418-0.271c0.114-0.08,0.219-0.121,0.306-0.121c0.151,0,0.288,0.094,0.407,0.275l0.854,1.396
					c-0.502,0.471-1.105,0.838-1.816,1.104C435.266,234.594,434.527,234.723,433.775,234.723z"/>
				<path fill="#FFFFFF" d="M440.963,234.461v-16.59h1.735c0.416,0,0.679,0.201,0.787,0.605l0.229,1.801
					c0.721-0.797,1.524-1.439,2.416-1.934c0.892-0.49,1.918-0.734,3.088-0.734c0.903,0,1.705,0.148,2.397,0.449
					c0.689,0.301,1.271,0.727,1.732,1.275c0.465,0.555,0.816,1.215,1.061,1.986c0.234,0.771,0.355,1.637,0.355,2.572v10.561h-2.914
					v-10.561c0-1.26-0.285-2.23-0.857-2.928c-0.571-0.689-1.448-1.039-2.627-1.039c-0.862,0-1.668,0.207-2.416,0.621
					c-0.748,0.416-1.438,0.979-2.071,1.688v12.219h-2.915V234.461L440.963,234.461z"/>
				<path fill="#FFFFFF" d="M465.742,217.609c0.994,0,1.912,0.166,2.752,0.498c0.841,0.334,1.562,0.812,2.179,1.439
					c0.611,0.629,1.09,1.4,1.438,2.322c0.344,0.926,0.516,1.979,0.516,3.152c0,0.459-0.049,0.764-0.146,0.918
					c-0.102,0.148-0.282,0.229-0.559,0.229h-11.04c0.021,1.049,0.163,1.959,0.426,2.732c0.266,0.775,0.623,1.424,1.08,1.939
					c0.459,0.52,1.006,0.904,1.643,1.164c0.633,0.256,1.344,0.385,2.129,0.385c0.729,0,1.357-0.086,1.892-0.254
					c0.53-0.17,0.985-0.355,1.368-0.549c0.382-0.195,0.701-0.379,0.957-0.551c0.257-0.17,0.479-0.254,0.664-0.254
					c0.24,0,0.427,0.094,0.558,0.277l0.817,1.061c-0.358,0.439-0.791,0.814-1.293,1.139c-0.504,0.322-1.041,0.592-1.612,0.799
					c-0.574,0.203-1.166,0.359-1.775,0.467c-0.609,0.104-1.219,0.15-1.816,0.15c-1.146,0-2.203-0.189-3.168-0.58
					c-0.967-0.389-1.803-0.951-2.506-1.699c-0.705-0.748-1.254-1.678-1.646-2.775c-0.393-1.104-0.591-2.367-0.591-3.801
					c0-1.156,0.179-2.236,0.533-3.242c0.354-1.006,0.864-1.875,1.53-2.609c0.666-0.736,1.479-1.314,2.438-1.736
					C463.461,217.818,464.54,217.609,465.742,217.609z M465.809,219.754c-1.407,0-2.519,0.406-3.32,1.221
					c-0.812,0.812-1.312,1.941-1.512,3.385h9.022c0-0.68-0.092-1.297-0.276-1.854c-0.186-0.562-0.459-1.053-0.814-1.459
					c-0.361-0.408-0.805-0.729-1.317-0.949C467.066,219.865,466.475,219.754,465.809,219.754z"/>
				<path fill="#FFFFFF" d="M476.338,234.461v-16.59h1.67c0.315,0,0.534,0.061,0.655,0.18c0.119,0.121,0.201,0.328,0.244,0.623
					l0.193,2.588c0.568-1.156,1.271-2.062,2.104-2.711c0.834-0.646,1.812-0.975,2.938-0.975c0.455,0,0.871,0.053,1.242,0.156
					c0.371,0.102,0.717,0.248,1.031,0.434l-0.377,2.178c-0.076,0.273-0.244,0.41-0.509,0.41c-0.151,0-0.389-0.053-0.702-0.156
					c-0.316-0.104-0.761-0.152-1.326-0.152c-1.017,0-1.865,0.295-2.547,0.885c-0.686,0.594-1.254,1.447-1.711,2.572v10.562h-2.914
					v-0.002h0.006v-0.002H476.338z"/>
			</g>
		</g>
	</g>
	<path fill="#8F8F8F" d="M457.477,79.147c-27.609,0-50,22.386-50,50c0,27.612,22.391,50.001,50,50.001c27.615,0,50-22.389,50-50.001
		C507.477,101.533,485.092,79.147,457.477,79.147z M457.477,159.148c-16.564,0-30-13.434-30-30.001c0-16.568,13.436-30,30-30
		c16.568,0,30,13.432,30,30S474.045,159.148,457.477,159.148z"/>
	<path fill="#8F8F8F" d="M352.477,79.147c-27.609,0-50,22.386-50,50c0,27.612,22.391,50.001,50,50.001c27.615,0,50-22.389,50-50.001
		C402.477,101.533,380.092,79.147,352.477,79.147z M352.477,159.148c-16.564,0-30-13.434-30-30.001c0-16.568,13.436-30,30-30
		c16.568,0,30,13.432,30,30S369.045,159.148,352.477,159.148z"/>
	<path fill="#875A7B" d="M142.523,79.147c-27.612,0-50,22.386-50,50c0,27.612,22.388,50.001,50,50.001c27.615,0,50-22.389,50-50.001
		C192.524,101.533,170.14,79.147,142.523,79.147z M142.523,159.148c-16.567,0-30-13.434-30-30.001c0-16.568,13.433-30,30-30
		s30,13.432,30,30S159.093,159.148,142.523,159.148z"/>
	<path fill="#8F8F8F" d="M287.525,48.989c-5.523,0-10,4.477-10,10v30.013c-8.357-6.278-18.744-10-30-10
		c-27.613,0-50.001,22.386-50.001,50s22.388,50.002,50.001,50.002c27.564,0,49.918-22.312,49.996-49.856h0.004v-70.16
		C297.525,53.465,293.048,48.989,287.525,48.989z M247.525,159.004c-16.568,0-30-13.434-30-30s13.432-30,30-30
		c16.566,0,30,13.432,30,30C277.525,145.572,264.093,159.004,247.525,159.004z"/>
</g>
</svg>
